<svg xmlns="http://www.w3.org/2000/svg" width="246" height="246" viewBox="0 0 246 246">
  <g id="Receive_a_call" transform="translate(3914 -3938)">
    <circle id="Ellipse_593" data-name="Ellipse 593" cx="123" cy="123" r="123" transform="translate(-3914 3938)" fill="#00b39f"/>
    <path id="Path_4048" data-name="Path 4048" d="M33.982,157.89c.012.409.322.625.574.877a43.985,43.985,0,0,0,3.824,3.381c6.958,5.494,14.524,9.626,23.55,10.453a21.683,21.683,0,0,0,8.049-.765A45.412,45.412,0,0,0,74.73,169.8q7.553-3.126,14.753-6.98a165.223,165.223,0,0,0,30.434-21.058A195.1,195.1,0,0,0,138.062,123.8a224.225,224.225,0,0,0,18.376-23.721A218.009,218.009,0,0,0,169.046,78.99c1.643-3.155,3.153-6.38,4.823-9.52a21.034,21.034,0,0,0,2.2-7.755,25.722,25.722,0,0,0-.874-8.732,40.036,40.036,0,0,0-3.637-9.366A57.4,57.4,0,0,0,164.1,32.823c-.77-.887-1.416-1.978-2.639-2.394a1,1,0,0,0-.371-.949c-1.292-1.158-2.526-2.387-3.868-3.484a3.92,3.92,0,0,0-5.579.584q-5.72,7.42-11.39,14.879-6.106,7.988-12.207,15.98c-1.665,2.184-3.351,4.355-4.957,6.582a3.819,3.819,0,0,0,.792,5.408,39.609,39.609,0,0,0,4.2,2.688,1.173,1.173,0,0,0,1.024.082c-.083.541.3.751.685.947.927.475,1.854.952,2.791,1.407a64.145,64.145,0,0,0,9.873,3.709C126.1,102.4,106.54,123.152,82.273,139.425c-.216-.477-.375-.762-.474-1.066s-.11-.646-.211-.953a68.785,68.785,0,0,0-4.716-11.146c-.2-.366-.358-.787-.857-.859a.77.77,0,0,0-.078-.734c-.81-1.265-1.553-2.575-2.39-3.822a3.784,3.784,0,0,0-5.76-1.072c-.832.577-1.613,1.227-2.42,1.842q-11.7,8.93-23.406,17.858c-3.694,2.817-7.4,5.621-11.082,8.45-2.455,1.885-2.631,4.326-.513,6.559q1.285,1.355,2.565,2.713a1.981,1.981,0,0,0,1.044.692M92.3,107.907c-.46-1.284-.866-2.472-1.309-3.645q-2.854-7.58-5.73-15.162c-.312-.827-.082-1.145.825-1.15,2.2-.014,4.395.007,6.591-.013a3.337,3.337,0,0,0,3.534-3.578q.009-29.6,0-59.2a3.637,3.637,0,0,0-3.71-3.741c-1.148-.012-2.3,0-3.443,0H4.253a4.013,4.013,0,0,0-1.645.174C.732,22.391.006,23.5,0,25.757V83.775c0,1.567.294,3.025,1.82,3.871a5.5,5.5,0,0,0,2.773.441q28.679.009,57.359-.009a4.046,4.046,0,0,1,2.458.793q5.167,3.654,10.375,7.25,8.18,5.676,16.375,11.331a1.629,1.629,0,0,0,1.149.457" transform="translate(-3870.132 3976.584)" fill="#30a08d"/>
    <path id="Path_4049" data-name="Path 4049" d="M92.31,107.91a1.627,1.627,0,0,1-1.149-.457Q82.967,101.8,74.785,96.122q-5.2-3.609-10.375-7.251a4.05,4.05,0,0,0-2.459-.793q-28.679.027-57.358.009a5.5,5.5,0,0,1-2.773-.441C.294,86.8,0,85.343,0,83.776V25.758c0-2.252.728-3.365,2.6-4.159a4.006,4.006,0,0,1,1.645-.174q42.4-.008,84.808,0c1.148,0,2.3-.007,3.443,0a3.637,3.637,0,0,1,3.71,3.74q.011,29.6,0,59.2a3.338,3.338,0,0,1-3.533,3.579c-2.2.02-4.395,0-6.592.013-.907.006-1.137.324-.825,1.151q2.869,7.58,5.744,15.157c.443,1.174.849,2.361,1.309,3.645m-65-47.538c.018-.353.04-.579.04-.805,0-4.029-.02-8.058.02-12.086.009-.842-.281-1.044-1.072-1.038q-6.045.05-12.091,0c-.808-.007-1.071.222-1.063,1.049.039,4,.016,7.992.021,11.988a1.18,1.18,0,0,0,.173.893Zm25.157-.046a1.24,1.24,0,0,0,.083-.266c.008-4.288,0-8.575.03-12.863,0-.748-.423-.745-.955-.744-4.028.007-8.056.026-12.083-.013-.92-.009-1.156.308-1.146,1.2q.068,5.842,0,11.685c-.01.856.218,1.131,1.092,1.121,3.8-.042,7.6-.014,11.4-.023a4.635,4.635,0,0,0,1.583-.1m18.364.1c2.033,0,4.066-.02,6.1.012.637.01.852-.186.848-.837q-.037-6.145,0-12.289c0-.632-.2-.865-.847-.862q-6.1.032-12.2,0c-.65,0-.849.23-.846.862q.03,6.144,0,12.289c0,.652.211.848.849.838,2.033-.033,4.066-.012,6.1-.013" transform="translate(-3870.132 3976.584)" fill="#233e39"/>
    <path id="Path_4050" data-name="Path 4050" d="M213.733,44.292c1.223.416,1.869,1.507,2.639,2.394a57.4,57.4,0,0,1,7.459,10.8,40.038,40.038,0,0,1,3.637,9.366,25.723,25.723,0,0,1,.874,8.732,21.034,21.034,0,0,1-2.2,7.755c-1.67,3.14-3.18,6.365-4.823,9.52a218,218,0,0,1-12.608,21.091,224.212,224.212,0,0,1-18.376,23.721,195.107,195.107,0,0,1-18.146,17.962,165.223,165.223,0,0,1-30.434,21.058q-7.214,3.843-14.753,6.98a45.4,45.4,0,0,1-4.751,2.033,21.683,21.683,0,0,1-8.049.765c-9.026-.827-16.592-4.959-23.55-10.453a43.928,43.928,0,0,1-3.824-3.381c-.252-.252-.562-.468-.574-.877a3.22,3.22,0,0,1,.28-.274q7.4-5.712,14.805-11.42,13.116-10.108,26.233-20.213c.134.011.2-.052.2-.186l.522-.393c.5.07.662.491.859.857a68.82,68.82,0,0,1,4.715,11.146c.1.307.111.645.211.953s.258.589.474,1.066c24.267-16.273,43.828-37.025,60.181-61.163a64.147,64.147,0,0,1-9.873-3.709c-.937-.455-1.864-.932-2.791-1.407-.384-.2-.768-.407-.685-.947l19.555-25.271q6.393-8.255,12.8-16.5" transform="translate(-3922.4 3962.721)" fill="#233d39"/>
    <path id="Path_4051" data-name="Path 4051" d="M349.591,36.084l-12.8,16.5q-9.782,12.632-19.555,25.271a1.173,1.173,0,0,1-1.024-.082,39.548,39.548,0,0,1-4.2-2.688,3.819,3.819,0,0,1-.792-5.408c1.606-2.227,3.291-4.4,4.957-6.582q6.1-7.995,12.207-15.98,5.689-7.444,11.389-14.879a3.92,3.92,0,0,1,5.579-.584c1.342,1.1,2.576,2.325,3.868,3.484a1,1,0,0,1,.371.949" transform="translate(-4058.257 3970.929)" fill="#fff"/>
    <path id="Path_4052" data-name="Path 4052" d="M119.76,275.909,93.527,296.122q-7.405,5.707-14.805,11.42a3.217,3.217,0,0,0-.28.274,1.98,1.98,0,0,1-1.044-.692q-1.281-1.358-2.565-2.713c-2.118-2.234-1.942-4.674.513-6.559,3.685-2.829,7.389-5.633,11.082-8.451l23.406-17.858c.806-.615,1.587-1.265,2.419-1.842a3.784,3.784,0,0,1,5.76,1.071c.837,1.247,1.58,2.557,2.39,3.822a.769.769,0,0,1,.077.734l-.524.394a.169.169,0,0,0-.2.186" transform="translate(-3914.591 3826.656)" fill="#fff"/>
    <path id="Path_4053" data-name="Path 4053" d="M47.521,98.863H33.549a1.182,1.182,0,0,1-.173-.893c-.005-4,.018-7.992-.021-11.987-.008-.828.255-1.057,1.063-1.05q6.046.053,12.092,0c.792-.006,1.081.2,1.072,1.038-.041,4.028-.018,8.057-.02,12.086,0,.226-.022.452-.04.805" transform="translate(-3890.345 3938.093)" fill="#fff"/>
    <path id="Path_4054" data-name="Path 4054" d="M111.521,98.813a4.645,4.645,0,0,1-1.583.1c-3.8.009-7.6-.019-11.4.023-.874.01-1.1-.265-1.092-1.122q.067-5.841,0-11.685c-.011-.889.226-1.206,1.145-1.2,4.028.039,8.056.02,12.084.013.531,0,.959,0,.954.744-.027,4.287-.022,8.575-.03,12.862a1.226,1.226,0,0,1-.083.266" transform="translate(-3929.188 3938.096)" fill="#fff"/>
    <path id="Path_4055" data-name="Path 4055" d="M169.087,98.923c-2.033,0-4.066-.02-6.1.012-.638.01-.853-.185-.849-.837q.037-6.145,0-12.29c0-.632.2-.865.846-.862q6.1.032,12.2,0c.65,0,.85.23.847.862q-.03,6.144,0,12.289c0,.651-.211.847-.848.837-2.033-.033-4.066-.012-6.1-.012" transform="translate(-3968.389 3938.084)" fill="#fff"/>
    <path id="Path_4056" data-name="Path 4056" d="M191.122,286.531a.169.169,0,0,1,.2-.186c0,.134-.062.2-.2.186" transform="translate(-3985.953 3816.035)" fill="#30a08d"/>
  </g>
</svg>
