<svg xmlns="http://www.w3.org/2000/svg" viewBox="0 0 138.09 138.09"><defs><style>.cls-1{fill:#30ae9f;}.cls-2{fill:#fff;}</style></defs><g id="Layer_2" data-name="Layer 2"><g id="Layer_1-2" data-name="Layer 1"><rect class="cls-1" width="138.09" height="138.09" rx="34.31"/><path class="cls-2" d="M48.64,80.39A73.18,73.18,0,0,0,73,99.43c3.55,1.68,8.3,3.68,13.6,4,.33,0,.64,0,1,0a11.28,11.28,0,0,0,8.73-3.75l.06-.07a38.64,38.64,0,0,1,2.75-2.86c.67-.64,1.36-1.31,2-2,3-3.16,3-7.19,0-10.26L92.47,76a6.92,6.92,0,0,0-5-2.31A7.14,7.14,0,0,0,82.37,76l-5.11,5.11c-.47-.27-1-.51-1.42-.74s-1.09-.56-1.57-.86A53.87,53.87,0,0,1,61.36,67.7a31.29,31.29,0,0,1-4.37-7c1.34-1.21,2.6-2.48,3.81-3.72.43-.45.87-.89,1.32-1.33a6.78,6.78,0,0,0,0-10.28l-4.26-4.25c-.5-.5-1-1-1.45-1.48-.94-1-1.93-2-2.9-2.87a7.13,7.13,0,0,0-5-2.2,7.34,7.34,0,0,0-5.08,2.21l-5.34,5.34a11,11,0,0,0-3.27,7,26.41,26.41,0,0,0,2,11.42A66.26,66.26,0,0,0,48.64,80.39ZM38.28,49.48a7.58,7.58,0,0,1,2.27-4.85l5.31-5.31a3.84,3.84,0,0,1,2.63-1.21,3.65,3.65,0,0,1,2.57,1.24c.95.88,1.85,1.81,2.82,2.8l1.49,1.51,4.25,4.25A3.91,3.91,0,0,1,61,50.58a3.91,3.91,0,0,1-1.34,2.67l-1.33,1.34c-1.33,1.34-2.57,2.61-3.94,3.82l-.07.08a2.78,2.78,0,0,0-.71,3.16c0,.05,0,.08,0,.12a33.8,33.8,0,0,0,5,8.15A57.12,57.12,0,0,0,72.38,82.45a19.29,19.29,0,0,0,1.88,1c.57.29,1.1.56,1.57.86l.16.09a3,3,0,0,0,1.38.35,3.07,3.07,0,0,0,2.13-1l5.33-5.34a3.82,3.82,0,0,1,2.62-1.27A3.6,3.6,0,0,1,90,78.46l8.61,8.6c1.71,1.71,1.7,3.56,0,5.38-.6.64-1.22,1.25-1.89,1.89a42.06,42.06,0,0,0-3,3.1,7.82,7.82,0,0,1-6.12,2.6l-.74,0c-4.68-.3-9-2.13-12.3-3.68A69.33,69.33,0,0,1,51.36,78.19,63.4,63.4,0,0,1,40.08,59.43,23.17,23.17,0,0,1,38.28,49.48Z"/></g></g></svg>