<svg xmlns="http://www.w3.org/2000/svg" width="246" height="246" viewBox="0 0 246 246">
  <g id="easy_credit" transform="translate(3654 -3938)">
    <circle id="Ellipse_593" data-name="Ellipse 593" cx="123" cy="123" r="123" transform="translate(-3654 3938)" fill="#00b39f"/>
    <path id="Path_4057" data-name="Path 4057" d="M771.487,157.786a1.6,1.6,0,0,1,.241,1.1q0,41.361-.034,82.722a9.894,9.894,0,0,1-4.94,8.537,11.282,11.282,0,0,1-6.326,1.642H595.377a12.164,12.164,0,0,1-6.713-1.7,10.274,10.274,0,0,1-4.314-5.473,13.751,13.751,0,0,1-.609-4.547v-80.7a3.375,3.375,0,0,1,.22-1.6c.449.01.9.029,1.348.029H732.555q19.465,0,38.931-.012m-45.154,74.56H751.1c1.124,0,1.168-.039,1.168-1.11V201.073c0-1.077-.2-1.278-1.294-1.3-1.561-.039-3.117.12-4.685.019-2.2-.141-4.4.092-6.611,0-2.071-.087-4.15,0-6.225-.023s-4.148.108-6.226.019c-2.1-.09-4.212.068-6.322,0-2.362-.074-4.729,0-7.092-.024-1.433-.015-2.861.1-4.3.035-2.36-.1-4.727-.03-7.092-.025a5.654,5.654,0,0,0-.957.059c-1.062.185-1.062.193-1.062,1.248V231.05c0,1.294,0,1.3,1.266,1.3h24.668M617.764,180.471h13.68a15.188,15.188,0,0,0,1.908-.168c1.45-.181,2.768-2.637,2.106-4.114a3.54,3.54,0,0,0-3.46-2.261q-14.21-.022-28.42,0a4.219,4.219,0,0,0-2.553.939c-1.31.976-1.3,3.866.236,4.908a4.021,4.021,0,0,0,2.342.7q7.081-.008,14.162,0m42.109,0h13.69a7.654,7.654,0,0,0,1.717-.158,3.135,3.135,0,0,0,2.347-2.268,3.341,3.341,0,0,0-1.347-3.541,4.731,4.731,0,0,0-2.494-.586q-13.786.01-27.572,0a6.726,6.726,0,0,0-1.427.158,3.253,3.253,0,0,0-2.631,3.2,3.071,3.071,0,0,0,2.6,3.079c.41.033.822.108,1.238.108h13.882m-1.706,16.2c1.091,0,1.959-.022,2.826.007a4.613,4.613,0,0,0,2.2-.533,3.273,3.273,0,0,0,.84-4.91,3.937,3.937,0,0,0-2.96-1.1c-1.862-.044-3.726-.019-5.589-.008a3.831,3.831,0,0,0-1.854.392,3.039,3.039,0,0,0-1.469,4.095,2.863,2.863,0,0,0,2.2,1.887,20.607,20.607,0,0,0,3.8.171m-35.843,0c.9,0,1.57.006,2.244,0a10.315,10.315,0,0,0,2.1-.158,3.249,3.249,0,0,0-1.053-6.385c-1.959-.022-3.92-.026-5.879.007a3.642,3.642,0,0,0-1.842.424,3.121,3.121,0,0,0-1.611,3.028,3.4,3.4,0,0,0,2.326,2.936,27.347,27.347,0,0,0,3.713.148m18.121,0a14.351,14.351,0,0,0,1.536-.008c1.669-.181,2.9-.942,3.2-2.4.385-1.857-.241-3.587-2.566-4a20.262,20.262,0,0,0-3.731-.12,3.12,3.12,0,0,0-3,1.989,3.29,3.29,0,0,0,3.021,4.533c.511.026,1.025,0,1.538,0m-35.558-.01c.608,0,1.218.017,1.825-.008a3.282,3.282,0,0,0,.745-.172,3.519,3.519,0,0,0,2.29-3.221,3.238,3.238,0,0,0-2.515-2.971,17,17,0,0,0-4.015-.127,2.944,2.944,0,0,0-1.468.356,3.27,3.27,0,0,0,.755,6,11.326,11.326,0,0,0,2.384.146m72.762-3.3c.324-1.555-1.349-3.278-3.114-3.236a3.28,3.28,0,0,0-3.233,3.241,3.185,3.185,0,0,0,3.117,3.247,3.107,3.107,0,0,0,3.229-3.252" transform="translate(-4208.733 3877.34)" fill="#233e39"/>
    <path id="Path_4058" data-name="Path 4058" d="M771.524,116.421l-38.931.012H585.347c-.449,0-.9-.019-1.348-.029a2.917,2.917,0,0,1-.2-1.21q.009-11.788,0-23.575a3.413,3.413,0,0,1,.212-1.213c.45,0,.9-.011,1.349-.011H771.55a2.737,2.737,0,0,1,.215,1.213q-.009,11.8,0,23.611a2.146,2.146,0,0,1-.241,1.2" transform="translate(-4208.771 3918.704)" fill="#fff"/>
    <path id="Path_4059" data-name="Path 4059" d="M771.509,64.594H585.321c-.45,0-.9.007-1.349.011a1.078,1.078,0,0,1-.235-.714,58.21,58.21,0,0,1,.178-6.542,10.092,10.092,0,0,1,3.9-6.709,9.769,9.769,0,0,1,4.691-2.014,27.126,27.126,0,0,1,4.019-.254q81.986-.008,163.972,0a11.072,11.072,0,0,1,7.03,2.143,10.482,10.482,0,0,1,3.864,5.8,12.053,12.053,0,0,1,.329,3.036c.008,1.414,0,2.828,0,4.242a1.422,1.422,0,0,1-.215,1.01" transform="translate(-4208.729 3944.508)" fill="#193f39"/>
    <path id="Path_4060" data-name="Path 4060" d="M911.85,299.091H887.183c-1.263,0-1.266,0-1.266-1.3V267.822c0-1.055,0-1.064,1.062-1.248a5.7,5.7,0,0,1,.957-.059c2.364,0,4.732-.077,7.092.025,1.439.062,2.867-.05,4.3-.035,2.364.025,4.73-.05,7.092.024,2.11.066,4.218-.092,6.322,0,2.078.089,4.151-.037,6.226-.019s4.153-.064,6.225.023c2.207.093,4.412-.141,6.611,0,1.568.1,3.124-.058,4.685-.019,1.089.027,1.293.228,1.294,1.3v30.161c0,1.07-.044,1.11-1.168,1.11H911.851" transform="translate(-4394.25 3810.594)" fill="#3f7065"/>
    <path id="Path_4061" data-name="Path 4061" d="M643.737,206.158H629.575a4.017,4.017,0,0,1-2.342-.7c-1.538-1.042-1.546-3.932-.236-4.908a4.222,4.222,0,0,1,2.553-.939q14.21-.007,28.42,0a3.541,3.541,0,0,1,3.46,2.262c.663,1.477-.656,3.934-2.106,4.114a15.245,15.245,0,0,1-1.907.168q-6.84-.009-13.68,0" transform="translate(-4234.706 3851.652)" fill="#3f7065"/>
    <path id="Path_4062" data-name="Path 4062" d="M752.769,206.153H738.887c-.415,0-.828-.075-1.238-.108a3.07,3.07,0,0,1-2.6-3.079,3.253,3.253,0,0,1,2.63-3.205,6.684,6.684,0,0,1,1.428-.158h27.572a4.729,4.729,0,0,1,2.493.586,3.342,3.342,0,0,1,1.347,3.541,3.135,3.135,0,0,1-2.344,2.27,7.656,7.656,0,0,1-1.717.158H752.769" transform="translate(-4301.629 3851.658)" fill="#3f7065"/>
    <path id="Path_4063" data-name="Path 4063" d="M766.545,248.1a20.61,20.61,0,0,1-3.8-.172,2.861,2.861,0,0,1-2.2-1.886,3.039,3.039,0,0,1,1.468-4.1,3.831,3.831,0,0,1,1.854-.392c1.863-.011,3.727-.036,5.589.008a3.938,3.938,0,0,1,2.96,1.1,3.273,3.273,0,0,1-.84,4.91,4.613,4.613,0,0,1-2.2.533c-.866-.029-1.735-.007-2.826-.007" transform="translate(-4317.111 3825.909)" fill="#3f7065"/>
    <path id="Path_4064" data-name="Path 4064" d="M674.076,248.107a27.4,27.4,0,0,1-3.712-.148,3.4,3.4,0,0,1-2.326-2.936,3.121,3.121,0,0,1,1.611-3.029,3.643,3.643,0,0,1,1.842-.424c1.959-.032,3.919-.029,5.879-.007a3.249,3.249,0,0,1,1.054,6.385,10.319,10.319,0,0,1-2.1.158c-.675.007-1.349,0-2.245,0" transform="translate(-4260.486 3825.906)" fill="#3f7065"/>
    <path id="Path_4065" data-name="Path 4065" d="M722.946,248.113c-.513,0-1.026.022-1.537,0a3.29,3.29,0,0,1-3.021-4.533,3.12,3.12,0,0,1,3-1.989,20.257,20.257,0,0,1,3.731.12c2.325.413,2.951,2.143,2.566,4-.3,1.454-1.531,2.215-3.2,2.4a14.265,14.265,0,0,1-1.537.008" transform="translate(-4291.234 3825.896)" fill="#3f7065"/>
    <path id="Path_4066" data-name="Path 4066" d="M630.892,248.084a11.332,11.332,0,0,1-2.384-.146,3.27,3.27,0,0,1-.755-6,2.943,2.943,0,0,1,1.467-.356,17,17,0,0,1,4.015.127,3.238,3.238,0,0,1,2.515,2.971,3.519,3.519,0,0,1-2.289,3.221,3.29,3.29,0,0,1-.745.172c-.607.025-1.216.008-1.825.008" transform="translate(-4234.738 3825.916)" fill="#3f7065"/>
    <path id="Path_4067" data-name="Path 4067" d="M816.894,244.8a3.107,3.107,0,0,1-3.229,3.252,3.185,3.185,0,0,1-3.117-3.247,3.28,3.28,0,0,1,3.233-3.241c1.765-.041,3.438,1.681,3.114,3.236" transform="translate(-4347.978 3825.896)" fill="#2b7265"/>
  </g>
</svg>
