<svg xmlns="http://www.w3.org/2000/svg" width="246" height="246" viewBox="0 0 246 246">
  <g id="call_alert" transform="translate(4174 -3938)">
    <circle id="Ellipse_593" data-name="Ellipse 593" cx="123" cy="123" r="123" transform="translate(-4174 3938)" fill="#00b39f"/>
    <path id="Path_4068" data-name="Path 4068" d="M1343.247,143.142a2.166,2.166,0,0,0,.158,1.091,27.227,27.227,0,0,0,2.779,5.615,21.691,21.691,0,0,0,15.155,9.8,18.842,18.842,0,0,0,7.263-.338,21.39,21.39,0,0,0,9.723-5.161,22.915,22.915,0,0,0,5.544-7.784,6.35,6.35,0,0,0,.975-3.223,2.379,2.379,0,0,1,.313-.041q22.18.006,44.361.031c.8,0,.989-.285.977-1.024-.037-2.367-.014-4.735-.014-7.1V125.67c0-.55-.048-1.049-.764-1.049a11.27,11.27,0,0,1-2.435-.326,14.007,14.007,0,0,1-8.207-5.119,14.816,14.816,0,0,1-3.117-9.552q.049-19.953-.006-39.905a63.422,63.422,0,0,0-.358-7.149,55.481,55.481,0,0,0-2.325-10.69,48.1,48.1,0,0,0-4.977-10.73A51.538,51.538,0,0,0,1381.7,19.487c-1.234-.455-2.5-.833-3.747-1.247a13.973,13.973,0,0,0-.411-8.757,14.045,14.045,0,0,0-10.454-9.1A13.6,13.6,0,0,0,1356.073,2.5a13.879,13.879,0,0,0-6.033,8.747,16.2,16.2,0,0,0,.093,7.035c-.594.2-1.184.424-1.783.611a50.179,50.179,0,0,0-10.229,4.518,51.615,51.615,0,0,0-23.3,28.93,47,47,0,0,0-2.426,14.239c-.04,14.261-.013,28.522-.035,42.782a15.352,15.352,0,0,1-1.906,7.872,14.047,14.047,0,0,1-11.673,7.365c-1.005.076-1.047.082-1.048,1.14v16.2c0,1.18,0,1.182,1.156,1.183h40.455c1.3,0,2.6.014,3.9.021" transform="translate(-5414.733 3981)" fill="#309f8d"/>
    <path id="Path_4069" data-name="Path 4069" d="M1377.957,53.1c1.25.414,2.513.792,3.747,1.247A51.532,51.532,0,0,1,1408.3,76a48.057,48.057,0,0,1,4.977,10.73,55.529,55.529,0,0,1,2.325,10.69,63.548,63.548,0,0,1,.358,7.148q.06,19.953.006,39.906a14.813,14.813,0,0,0,3.117,9.553,14.006,14.006,0,0,0,8.207,5.119,11.268,11.268,0,0,0,2.435.326c.716,0,.765.5.764,1.049q-.01,4.669,0,9.337c0,2.368-.023,4.736.014,7.1.011.74-.182,1.025-.977,1.024q-22.181-.04-44.361-.031a2.433,2.433,0,0,0-.313.04c-.239-.012-.477-.035-.715-.035H1344.05c-.265,0-.53.021-.8.033-1.3-.007-2.6-.021-3.9-.021H1298.9c-1.154,0-1.156,0-1.156-1.182v-16.2c0-1.058.042-1.063,1.048-1.14a14.048,14.048,0,0,0,11.673-7.365,15.355,15.355,0,0,0,1.906-7.872c.022-14.26,0-28.521.035-42.782a47.007,47.007,0,0,1,2.426-14.239,51.837,51.837,0,0,1,23.3-28.93,50.153,50.153,0,0,1,10.229-4.518c.6-.188,1.189-.407,1.782-.612a8.173,8.173,0,0,0,2.231-.5,64,64,0,0,1,10.244-1.353,36.933,36.933,0,0,1,6.519.276,35.608,35.608,0,0,1,5.421.836c1.115.308,2.269.475,3.406.706" transform="translate(-5414.733 3946.144)" fill="#233e39"/>
    <path id="Path_4070" data-name="Path 4070" d="M1440.089,447.762c.265-.012.53-.033.8-.033h40.086c.239,0,.477.023.715.035a6.349,6.349,0,0,1-.975,3.223,22.913,22.913,0,0,1-5.544,7.784,21.388,21.388,0,0,1-9.723,5.161,18.84,18.84,0,0,1-7.263.338,21.691,21.691,0,0,1-15.155-9.8,27.234,27.234,0,0,1-2.779-5.615,2.162,2.162,0,0,1-.158-1.091" transform="translate(-5511.575 3676.381)" fill="#fff"/>
    <path id="Path_4071" data-name="Path 4071" d="M1488.572,18.241c-1.137-.23-2.291-.4-3.406-.706a35.614,35.614,0,0,0-5.421-.836,36.932,36.932,0,0,0-6.519-.276,64,64,0,0,0-10.243,1.353,8.172,8.172,0,0,1-2.231.5,16.212,16.212,0,0,1-.092-7.034,13.884,13.884,0,0,1,6.033-8.748A13.606,13.606,0,0,1,1477.707.38a14.046,14.046,0,0,1,10.455,9.1,13.969,13.969,0,0,1,.411,8.757" transform="translate(-5525.348 3981)" fill="#fff"/>
  </g>
</svg>
