<svg width="80" height="80" viewBox="0 0 80 80" fill="none" xmlns="http://www.w3.org/2000/svg">
<path d="M2 40C2 19.0132 19.0132 2 40 2V2C60.9868 2 78 19.0132 78 40V40C78 60.9868 60.9868 78 40 78V78C19.0132 78 2 60.9868 2 40V40Z" fill="black"/>
<path d="M59.1824 29.8524C59.1824 32.6519 59.1824 35.4816 59.1824 38.3132C59.1824 38.6286 59.1936 38.9441 59.1787 39.2577C59.1284 40.4458 58.5379 41.0276 57.3737 41.0276C52.4673 41.0295 47.5628 41.0276 42.6565 41.0276C42.3193 41.0276 41.9803 41.0276 41.5128 41.0276C41.5128 42.2951 41.5128 43.5097 41.5128 44.7244C41.5128 45.9843 41.5258 47.2442 41.5053 48.5023C41.4979 48.9613 41.6152 49.1937 42.0865 49.3977C44.4782 50.4404 45.8491 53.0094 45.3797 55.4311C44.8675 58.0851 42.7254 59.9382 40.1064 59.9948C37.4893 60.0515 35.3472 58.3155 34.7027 55.6143C34.1215 53.1737 35.4701 50.5273 37.8283 49.4071C38.104 49.2768 38.4728 48.9443 38.4784 48.6969C38.5287 46.4943 38.5082 44.2899 38.5082 42.0855C38.5082 41.7757 38.5082 41.4659 38.5082 41.09H23.9977C23.9977 43.6911 23.9847 46.2639 24.0238 48.8367C24.0275 49.0293 24.3684 49.2862 24.6068 49.3958C26.8309 50.4309 28.2652 52.9848 27.8461 55.2082C27.3059 58.0737 25.2998 59.9004 22.5858 59.9967C20.0954 60.0855 17.8191 58.3646 17.1746 55.8523C16.5078 53.2531 17.7577 50.3063 20.8069 49.1937V29.8184C19.0057 29.1441 17.7483 27.9238 17.2063 25.997C16.3792 23.0691 18.1805 19.9183 21.1329 19.1608C24.0368 18.4166 27.1029 20.3339 27.7306 23.2864C28.3006 25.9763 27.0563 28.4508 24.5789 29.6314C24.3349 29.7486 24.0238 30.0735 24.0201 30.3077C23.9791 32.8219 23.9959 35.338 23.9959 37.9184H38.5119C38.5119 37.5481 38.5119 37.1552 38.5119 36.7642C38.5119 34.7184 38.497 32.6708 38.5212 30.625C38.5268 30.0886 38.3964 29.809 37.8581 29.5842C36.1593 28.874 34.427 27.0247 34.5947 24.0816C34.7064 22.102 36.0811 20.1828 38.0854 19.3951C40.7919 18.3316 43.925 19.6841 45.0296 22.3929C46.1509 25.1451 44.9569 28.3224 42.2951 29.5143C41.6916 29.7844 41.4867 30.098 41.4979 30.7592C41.5388 33.1166 41.5146 35.4759 41.5146 37.9089H56.0307C56.0307 35.3173 56.0437 32.7464 56.0046 30.1736C56.0009 29.979 55.6563 29.7202 55.4179 29.6069C53.326 28.6152 51.9886 26.4674 52.1246 24.2667C52.2699 21.9169 53.7414 20.0203 55.9972 19.2761C59.1284 18.2447 62.5073 20.4283 62.9432 23.7303C63.312 26.5146 61.8647 28.8135 59.1843 29.8524H59.1824ZM24.7391 24.501C24.7298 23.2259 23.6866 22.1511 22.4517 22.1435C21.2316 22.136 20.0637 23.326 20.0823 24.5595C20.1028 25.844 21.1925 26.8698 22.5169 26.8528C23.8226 26.8358 24.7484 25.8554 24.7391 24.501ZM22.4871 52.1745C21.1627 52.1688 20.073 53.2229 20.0823 54.4998C20.0916 55.705 21.1962 56.844 22.3921 56.8818C23.6513 56.9196 24.7372 55.8145 24.7372 54.4922C24.7372 53.1435 23.8021 52.1801 22.4852 52.1745H22.4871ZM57.5823 26.8528C58.8508 26.8528 59.9051 25.8384 59.9442 24.5803C59.9815 23.3506 58.8303 22.153 57.601 22.1435C56.3362 22.1341 55.28 23.2448 55.2893 24.5728C55.2987 25.8988 56.2598 26.8528 57.5823 26.8528ZM39.9723 26.8528C41.3637 26.8622 42.3063 25.9215 42.3007 24.5274C42.2951 23.2335 41.2948 22.1719 40.0524 22.1435C38.782 22.1133 37.724 23.2033 37.724 24.5388C37.724 25.8969 38.6442 26.8414 39.9723 26.8528V26.8528ZM42.3044 54.4866C42.3044 53.1284 41.3824 52.182 40.0543 52.1764C38.6591 52.1688 37.7166 53.1095 37.7221 54.5036C37.7277 55.79 38.7373 56.8591 39.976 56.8856C41.2408 56.912 42.3044 55.8164 42.3044 54.4885V54.4866Z" fill="white"/>
</svg>
