<svg width="180" height="180" viewBox="0 0 180 180" fill="none" xmlns="http://www.w3.org/2000/svg">
<rect width="180" height="180" rx="90" fill="#E0E0E0"/>
<path d="M15 86.3126V84.2643C15.948 82.0524 17.6407 81.2625 20.005 81.3302C23.6614 81.443 27.3178 81.3584 30.9798 81.3584C31.7924 81.3584 32.6105 81.3584 33.4174 81.3584C33.6826 80.7264 33.8745 80.2242 34.0945 79.7446C35.8325 75.9923 37.4462 72.1779 39.3478 68.5158C41.176 65.0062 43.4105 61.7165 46.717 59.3748C49.6399 57.304 52.9182 55.9103 56.2982 54.7818C65.5802 51.6783 75.1839 50.4765 84.9061 50.1041C91.9311 49.8332 98.9505 50.0815 105.93 50.9617C113.638 51.9323 121.205 53.484 128.348 56.6833C132.056 58.3479 135.266 60.6049 137.659 63.9792C140.7 68.2563 142.991 72.9171 144.949 77.7584C145.44 78.9659 145.953 80.1622 146.41 81.2568C146.63 81.3189 146.676 81.3415 146.721 81.3415C151.353 81.3528 155.986 81.3415 160.618 81.3753C163.626 81.3979 165.291 83.48 164.692 86.3972C164.06 89.495 163.423 92.5928 162.785 95.6906C162.227 98.399 160.901 99.4711 158.096 99.4881C156.917 99.4937 155.732 99.4881 154.327 99.4881C154.688 99.979 154.852 100.216 155.027 100.442C163.293 110.954 162.588 125.546 153.311 135.11C152.753 135.685 152.55 136.261 152.555 137.04C152.583 141.232 152.578 145.424 152.566 149.611C152.555 153.657 150.27 155.937 146.213 155.954C142.212 155.97 138.206 155.829 134.217 155.993C130.29 156.157 127.355 153.431 127.621 149.414C127.728 147.783 127.637 146.135 127.637 144.431H52.2242C52.2242 146.282 52.2411 148.031 52.2242 149.775C52.1791 153.663 49.9164 155.925 46.0173 155.948C41.9208 155.97 37.8243 155.965 33.7278 155.948C29.5692 155.937 27.3121 153.68 27.3009 149.538C27.2896 145.345 27.2726 141.153 27.3178 136.966C27.3291 136.018 27.0526 135.347 26.3868 134.67C17.494 125.625 16.6476 110.768 24.4118 100.662C24.6601 100.334 24.8689 99.979 25.2018 99.4768C23.6614 99.4768 22.3467 99.5219 21.0319 99.4655C19.1586 99.3865 17.9229 98.4385 17.3586 96.6611C17.0934 95.8316 16.958 94.957 16.7661 94.105C16.1793 91.5094 15.5925 88.9082 15.0113 86.3126H15ZM136.372 87.3678C133.94 81.2681 131.943 75.2587 127.999 70.1861C127.389 69.4017 126.52 68.7641 125.663 68.2506C121.07 65.5253 115.98 64.1767 110.794 63.2457C98.1719 60.9886 85.4929 60.8645 72.8027 62.6363C67.4366 63.3867 62.1777 64.566 57.1615 66.6989C54.216 67.9516 51.7502 69.6726 50.1252 72.5503C47.5352 77.1434 45.5095 81.9791 43.7095 86.9163C43.67 87.0292 43.7547 87.1872 43.7885 87.3621H136.372V87.3678ZM143.826 117.821C143.792 111.631 138.759 106.592 132.569 106.553C126.396 106.513 121.211 111.716 121.244 117.911C121.278 124.084 126.328 129.129 132.513 129.162C138.731 129.196 143.854 124.056 143.82 117.821H143.826ZM47.9471 129.117C54.4248 128.863 59.001 123.396 58.7414 117.471C58.4536 110.824 53.0537 106.366 47.1459 106.609C40.1152 106.897 35.9397 112.534 36.1992 118.267C36.5209 125.275 42.2989 129.399 47.9415 129.117H47.9471Z" fill="#30AE9F"/>
</svg>
