<svg id="Group_4764" data-name="Group 4764" xmlns="http://www.w3.org/2000/svg" xmlns:xlink="http://www.w3.org/1999/xlink" width="76" height="40" viewBox="0 0 76 40">
  <defs>
    <clipPath id="clip-path">
      <rect id="Rectangle_1944" data-name="Rectangle 1944" width="76" height="40" fill="none"/>
    </clipPath>
  </defs>
  <g id="Group_4763" data-name="Group 4763" clip-path="url(#clip-path)">
    <path id="Path_4233" data-name="Path 4233" d="M24.319,17.917c.407.067.787.13,1.167.19C29,18.667,32.5,19.28,36.017,19.77q5.139.716,10.306,1.222a122.456,122.456,0,0,0,15.947.576c2.953-.1,5.907-.25,8.852-.491s5.9-.583,8.844-.96,5.891-.843,8.832-1.295c1.683-.259,3.359-.568,5.038-.854.1-.017.2-.027.334-.044V41.35c-.5.123-1.011.256-1.521.368-3.071.669-6.132,1.391-9.218,1.981-3.107.594-6.235,1.09-9.363,1.564a99.557,99.557,0,0,1-10.521.978A84.187,84.187,0,0,1,53.2,46.115c-2.7-.213-5.408-.46-8.1-.8-2.565-.325-5.121-.742-7.664-1.208-3-.55-5.98-1.187-8.965-1.806-1.3-.269-2.584-.585-3.875-.881-.091-.021-.179-.05-.281-.079Zm7.7,9.39c.112.028.222.066.335.084q3.536.561,7.073,1.117a3.522,3.522,0,0,0,.372.019V21.251l-7.744-1.082v.417q0,3.163,0,6.325c0,.135-.016.27-.025.406a1.037,1.037,0,0,1-.155-.009L25.331,25.96c-.086-.018-.174-.02-.268-.03v7.788c.134.036.244.07.356.1q3.211.723,6.423,1.446a.589.589,0,0,1,.165.106,2.906,2.906,0,0,1,.045.363q0,3.207,0,6.413c0,.122.012.244.02.406l7.715,1.444c.013-.162.027-.253.027-.344q0-3.4,0-6.79c0-.073-.011-.146-.017-.219,2.576.356,5.158.661,7.773.9.009-.144.02-.246.02-.348q0-3.739,0-7.479a3.205,3.205,0,0,0-.05-.4,3.143,3.143,0,0,0,.457.093q3.495.2,6.99.383c.111.006.222,0,.346,0V22.382L47.592,22v.409q0,3.27,0,6.541a3.183,3.183,0,0,1-.041.366,3.27,3.27,0,0,1-.461.015q-3.4-.354-6.8-.717c-.143-.015-.287-.022-.475-.036,0,.168,0,.3,0,.434q0,3.817-.006,7.634c-.051-.011-.1-.024-.154-.033q-3.671-.632-7.343-1.26a1.475,1.475,0,0,0-.308.012,4.307,4.307,0,0,0,.049-.465q0-3.612,0-7.225a3.64,3.64,0,0,0-.037-.37m31.06,2.458a2.885,2.885,0,0,1-.309.036c-.914.011-1.827.027-2.741.026-1.429,0-2.857-.016-4.286-.023-.121,0-.241.013-.388.022V30.2q0,3.724,0,7.447c0,.124-.019.248-.028.373l-7.707-.43v7.381l7.716.512c.011-.177.023-.289.023-.4q0-3.367,0-6.733a2.76,2.76,0,0,0-.041-.339c1.5.016,3,.041,4.5.045,1.092,0,2.183-.02,3.275-.032.006.115.017.229.017.344q0,3.351,0,6.7c0,.131.015.262.025.445l7.743-.5V37.6l-.455.027-7.34.409c.009-.1.026-.207.026-.311q0-3.8,0-7.593a3.418,3.418,0,0,0-.04-.372,2.656,2.656,0,0,0,.373.032q3.748-.195,7.5-.4a2.909,2.909,0,0,0-.039.34q0,3.744,0,7.489c0,.111.012.223.022.394l7.74-.9v7.335L86.387,42.6v-7.21l-7.75,1.331V28.6c-.135.009-.219.01-.3.02-.877.1-1.754.213-2.632.3-1.59.165-3.181.318-4.771.477-.01-.124-.029-.249-.029-.373q0-3.27,0-6.54v-.47l-7.77.359c-.007.148-.019.281-.019.414q0,3.317,0,6.635c0,.113-.02.226-.031.339m23.33-2.384V20.167l-7.725,1.108V28.6l7.743-1.216v7.986l6.99-1.626V25.914l-7.008,1.467" transform="translate(-21.247 -15.659)"/>
    <rect id="Rectangle_1942" data-name="Rectangle 1942" width="1.117" height="38.243" transform="translate(1.228 1.755)"/>
    <rect id="Rectangle_1943" data-name="Rectangle 1943" width="1.117" height="38.254" transform="translate(73.654 1.746)"/>
    <path id="Path_4234" data-name="Path 4234" d="M1.813,0C2.2,0,2.589,0,2.978,0s.612.2.611.523-.222.517-.614.519q-1.181.008-2.362,0C.225,1.044,0,.843,0,.523S.229.008.616,0s.8,0,1.2,0" transform="translate(0 0)"/>
    <path id="Path_4235" data-name="Path 4235" d="M575.018,0c.4,0,.8-.006,1.2,0s.612.212.607.53-.226.507-.594.511q-1.212.011-2.423,0a.512.512,0,0,1-.571-.529c.005-.313.22-.5.59-.511.4-.007.8,0,1.2,0" transform="translate(-500.82 0)"/>
    <path id="Path_4236" data-name="Path 4236" d="M393.094,103.492c1.59-.158,3.182-.311,4.771-.477.879-.091,1.755-.2,2.632-.3.083-.01.166-.011.3-.02v8.117l7.75-1.331v7.21l-7.725,1.456v-7.335l-7.74.9c-.01-.171-.022-.282-.022-.394q0-3.744,0-7.489a2.9,2.9,0,0,1,.039-.34Z" transform="translate(-343.409 -89.749)" fill="#fff"/>
    <path id="Path_4237" data-name="Path 4237" d="M462.408,42.983l7.008-1.467v7.832l-6.99,1.626V42.987L454.683,44.2V36.876l7.725-1.108Z" transform="translate(-397.247 -31.26)" fill="#fff"/>
    <path id="Path_4238" data-name="Path 4238" d="M277.477,120.146c-1.092.012-2.183.035-3.275.032-1.5,0-3-.029-4.5-.045l.009.01c.01-.124.028-.248.028-.373q0-3.723,0-7.447v-.378c.147-.009.268-.022.388-.022,1.428.007,2.857.021,4.285.023.914,0,1.828-.014,2.741-.026a2.917,2.917,0,0,0,.309-.036l-.007-.006a3.382,3.382,0,0,1,.04.372q0,3.8,0,7.593c0,.1-.017.207-.026.311Z" transform="translate(-235.629 -97.778)" fill="#fff"/>
    <path id="Path_4239" data-name="Path 4239" d="M146.887,110.6q0-3.817.006-7.634c0-.133,0-.266,0-.434.188.014.332.021.475.036q3.4.359,6.8.717a3.309,3.309,0,0,0,.461-.015l-.006-.007a3.234,3.234,0,0,1,.05.4q0,3.74,0,7.479c0,.1-.012.2-.02.348-2.615-.24-5.2-.544-7.773-.9l.009.009" transform="translate(-128.324 -89.609)" fill="#fff"/>
    <path id="Path_4240" data-name="Path 4240" d="M331.207,174.524l7.34-.409.455-.027v7.422l-7.743.5c-.011-.183-.025-.314-.025-.445q0-3.351,0-6.7c0-.115-.011-.229-.017-.344Z" transform="translate(-289.368 -152.148)" fill="#fff"/>
    <path id="Path_4241" data-name="Path 4241" d="M338.962,57.836q-3.748.2-7.5.4a2.658,2.658,0,0,1-.373-.032l.007.006c.011-.113.031-.226.031-.339q0-3.317,0-6.635c0-.133.012-.266.019-.414l7.77-.359v.47q0,3.27,0,6.54c0,.124.019.249.029.373l.008-.008" transform="translate(-289.269 -44.1)" fill="#fff"/>
    <path id="Path_4242" data-name="Path 4242" d="M208.176,57.657a3.186,3.186,0,0,0,.041-.366q0-3.27,0-6.541v-.409l7.744.379v7.407c-.124,0-.235.005-.346,0q-3.5-.189-6.99-.383a3.145,3.145,0,0,1-.457-.093Z" transform="translate(-181.874 -43.996)" fill="#fff"/>
    <path id="Path_4243" data-name="Path 4243" d="M216.46,174.46a2.788,2.788,0,0,1,.041.339q0,3.367,0,6.733c0,.112-.012.223-.023.4l-7.716-.512v-7.381l7.707.43Z" transform="translate(-182.392 -152.105)" fill="#fff"/>
    <path id="Path_4244" data-name="Path 4244" d="M85.166,156.257a1.477,1.477,0,0,1,.308-.012q3.672.626,7.343,1.26c.052.009.1.022.154.033l-.009-.009c.006.073.017.146.017.219q0,3.4,0,6.79c0,.091-.014.182-.027.344l-7.715-1.444c-.008-.162-.02-.284-.02-.406q0-3.207,0-6.413a2.906,2.906,0,0,0-.045-.364Z" transform="translate(-74.408 -136.549)" fill="#fff"/>
    <path id="Path_4245" data-name="Path 4245" d="M85.277,42.929c.009-.135.025-.27.025-.406q0-3.163,0-6.325v-.417l7.744,1.082v7.276a3.487,3.487,0,0,1-.372-.019Q89.139,43.565,85.6,43c-.113-.018-.223-.055-.335-.084Z" transform="translate(-74.497 -31.271)" fill="#fff"/>
    <path id="Path_4246" data-name="Path 4246" d="M37.163,82.877a3.641,3.641,0,0,1,.037.37q0,3.612,0,7.225a4.3,4.3,0,0,1-.049.465h0a.592.592,0,0,0-.165-.106q-3.21-.727-6.423-1.446c-.112-.025-.222-.059-.356-.1V81.5c.094.01.183.012.268.03l6.541,1.348a1.055,1.055,0,0,0,.155.009Z" transform="translate(-26.392 -71.229)" fill="#fff"/>
  </g>
</svg>
