<svg width="142" height="143" viewBox="0 0 142 143" fill="none" xmlns="http://www.w3.org/2000/svg">
<path d="M86.4668 60.8853C87.8871 60.8853 89.1195 60.8468 90.3472 60.8997C91.2331 60.9382 91.5845 60.611 91.5412 59.721C91.493 58.7636 91.5604 57.8015 91.5267 56.8393C91.5027 56.0936 91.7626 55.7135 92.557 55.7376C93.5584 55.7664 94.5598 55.7616 95.5612 55.7279C96.3267 55.7039 96.6588 56.0214 96.6348 56.796C96.6059 57.7966 96.6492 58.7973 96.6203 59.798C96.5963 60.6255 96.9477 60.943 97.771 60.9045C98.729 60.8564 99.6919 60.8612 100.655 60.8997C101.502 60.9334 101.796 60.5485 101.767 59.7451C101.733 58.7877 101.781 57.8255 101.752 56.8633C101.728 56.0647 102.017 55.7135 102.869 55.7183C107.193 55.7472 111.521 55.7472 115.844 55.7231C116.663 55.7231 117.019 55.9829 116.971 56.8345C116.918 57.7918 116.918 58.7588 116.971 59.7162C117.019 60.5581 116.691 60.842 115.863 60.8323C113.341 60.7987 110.818 60.8179 108.295 60.8227C106.788 60.8227 106.783 60.8227 106.783 62.3719C106.783 64.8543 106.774 67.3319 106.783 69.8144C106.788 70.9738 106.851 71.0316 108.011 71.0412C108.974 71.0508 109.932 71.0219 110.895 71.046C111.665 71.07 111.983 70.7285 111.959 69.9683C111.93 68.9677 111.959 67.967 111.944 66.9663C111.935 66.2783 112.224 65.932 112.946 65.9464C113.986 65.9656 115.031 65.9656 116.07 65.9416C116.754 65.9271 116.99 66.2447 116.961 66.8941C116.927 67.6928 116.947 68.4962 116.947 69.2948C116.947 70.4591 117.515 71.0428 118.651 71.046C119.493 71.046 120.331 71.0604 121.174 71.046C121.833 71.0316 122.122 71.325 122.112 71.9841C122.098 72.9463 122.117 73.9037 122.112 74.8659C122.103 75.9868 122.011 76.0831 120.856 76.0831C117.452 76.0927 114.048 76.0879 110.645 76.0879C109.725 76.0879 108.801 76.1215 107.881 76.0831C107.043 76.0494 106.735 76.415 106.774 77.2281C106.817 78.1854 106.822 79.1525 106.774 80.1098C106.735 80.9517 107.082 81.2308 107.905 81.2212C110.428 81.1875 112.951 81.2067 115.473 81.2115C116.927 81.2115 116.956 81.25 116.961 82.6885C116.961 83.5304 116.923 84.3723 116.971 85.2094C117.019 86.0658 116.643 86.316 115.83 86.3111C112.185 86.2823 108.541 86.2967 104.896 86.2967C104.294 86.2967 103.693 86.2967 103.096 86.2967C101.834 86.2919 101.757 86.2245 101.752 84.916C101.743 82.395 101.757 79.8741 101.748 77.3532C101.743 76.2178 101.637 76.1216 100.51 76.1023C99.5475 76.0831 98.5894 76.0783 97.6265 76.0927C96.9959 76.1023 96.6444 75.9099 96.6685 75.2027C96.7022 74.125 96.6974 73.0425 96.6781 71.9601C96.6685 71.301 96.9429 71.0219 97.6121 71.0364C98.652 71.0652 99.6967 71.0171 100.737 71.046C101.454 71.0652 101.762 70.7525 101.752 70.0501C101.738 69.011 101.738 67.967 101.752 66.9278C101.757 66.2543 101.488 65.8694 100.766 65.8742C98.0021 65.879 95.2386 65.879 92.4752 65.8742C91.676 65.8742 91.4641 66.3216 91.469 67.0337C91.4834 69.5931 91.4786 72.1573 91.4738 74.7168C91.4738 76.059 91.4641 76.0686 90.1546 76.0783C89.2351 76.0831 88.3107 76.059 87.3912 76.0783C86.722 76.0927 86.4524 75.7944 86.4764 75.1353C86.5005 74.3367 86.4861 73.5333 86.4764 72.7346C86.4668 71.5704 85.8955 70.9883 84.7625 70.9883C83.9633 70.9883 83.1593 70.9594 82.3602 70.9931C81.6573 71.0219 81.3251 70.7718 81.3539 70.0309C81.3876 69.0302 81.4021 68.0295 81.3539 67.0289C81.3106 66.1581 81.7247 65.9127 82.5094 65.9368C83.4289 65.9704 84.3533 65.9175 85.2728 65.9416C86.1298 65.9656 86.515 65.6192 86.4813 64.7292C86.4379 63.5024 86.4716 62.2708 86.4716 60.8901L86.4668 60.8853Z" fill="#30AE9F"/>
<path d="M122.117 35.3875C122.117 39.9916 122.117 44.5908 122.117 49.1949C122.117 50.5564 122.074 50.6093 120.687 50.6093C111.477 50.6093 102.268 50.6093 93.0577 50.6093C91.5412 50.6093 91.5363 50.5901 91.5363 49.0506C91.5363 39.8857 91.5363 30.7209 91.5363 21.556C91.5363 20.1175 91.5363 20.1079 93.024 20.1079C102.234 20.1079 111.444 20.1079 120.654 20.1079C122.108 20.1079 122.122 20.132 122.122 21.5897C122.122 26.1938 122.122 30.793 122.122 35.3971L122.117 35.3875ZM117.024 35.45C117.024 32.4865 117.028 29.5229 117.024 26.5642C117.024 25.1787 116.971 25.1354 115.613 25.1354C109.764 25.1354 103.914 25.1354 98.0646 25.1354C96.6974 25.1354 96.6348 25.1979 96.63 26.5546C96.6203 32.4384 96.6203 38.3222 96.6251 44.2108C96.6251 45.5049 96.6877 45.5675 97.9828 45.5675C103.871 45.5723 109.759 45.5723 115.652 45.5675C116.956 45.5675 117.019 45.5097 117.024 44.2204C117.038 41.3001 117.024 38.3751 117.024 35.4548V35.45Z" fill="#30AE9F"/>
<path d="M106.788 121.907C102.186 121.907 97.5784 121.907 92.9758 121.907C91.546 121.907 91.5315 121.888 91.5315 120.536C91.5315 111.294 91.5315 102.048 91.5315 92.8058C91.5315 91.4491 91.5652 91.4155 92.971 91.4155C102.181 91.4155 111.391 91.4106 120.601 91.4106C122.069 91.4106 122.117 91.4636 122.117 92.9983C122.117 102.163 122.117 111.323 122.117 120.488C122.117 121.893 122.103 121.907 120.721 121.912C116.075 121.912 111.429 121.912 106.788 121.912V121.907ZM96.6251 106.676H96.63C96.63 109.596 96.6251 112.511 96.63 115.432C96.63 116.817 96.7022 116.885 98.0261 116.885C103.909 116.885 109.788 116.889 115.671 116.885C116.966 116.885 117.019 116.827 117.024 115.518C117.033 109.639 117.033 103.765 117.024 97.8862C117.024 96.4814 116.99 96.4477 115.627 96.4477C109.744 96.4429 103.866 96.4429 97.9828 96.4477C96.6877 96.4477 96.6299 96.5103 96.6251 97.7996C96.6155 100.758 96.6251 103.717 96.6251 106.676V106.676Z" fill="#30AE9F"/>
<path d="M35.3911 50.6093C30.7837 50.6093 26.1764 50.6093 21.5738 50.6093C20.2306 50.6093 20.2017 50.5804 20.2017 49.2814C20.1969 39.9963 20.1969 30.7064 20.2017 21.4212C20.2017 20.1415 20.2354 20.1126 21.4583 20.1126C30.75 20.1078 40.0466 20.103 49.3383 20.103C50.6238 20.103 50.6575 20.1367 50.6575 21.479C50.6575 30.7256 50.6575 39.9723 50.6575 49.2189C50.6575 50.5708 50.6142 50.6093 49.218 50.6093C44.6106 50.6093 40.0033 50.6093 35.4007 50.6093H35.3911ZM25.1557 35.3345C25.1557 38.2932 25.1557 41.2568 25.1557 44.2155C25.1557 45.4615 25.2424 45.5626 26.4123 45.5674C32.4206 45.577 38.4242 45.5722 44.4325 45.5674C45.5928 45.5674 45.6842 45.4808 45.6842 44.3454C45.6939 38.3846 45.6939 32.4191 45.6842 26.4583C45.6842 25.2796 45.5494 25.1497 44.3603 25.1449C38.3953 25.1353 32.4303 25.1305 26.4604 25.1449C25.2617 25.1449 25.1509 25.2748 25.1509 26.4583C25.1461 29.417 25.1509 32.3806 25.1509 35.3393L25.1557 35.3345Z" fill="#30AE9F"/>
<path d="M141.986 29.0079C141.986 32.289 141.986 35.5749 141.986 38.8559C141.986 40.0875 141.928 40.1453 140.696 40.1405C139.415 40.1405 138.135 40.1164 136.849 40.1116C135.689 40.1116 135.65 40.0875 135.65 38.8896C135.646 33.1261 135.65 27.3578 135.65 21.5942C135.65 14.2431 131.173 8.48921 124.038 6.79576C122.883 6.52153 121.655 6.48786 120.456 6.48304C114.727 6.45899 108.998 6.48304 103.269 6.48786C102.056 6.48786 101.984 6.43493 101.974 5.20333C101.964 3.80334 101.993 2.39855 101.964 0.998561C101.95 0.272108 102.239 0.0315602 102.966 0.0315602C109.215 0.0556149 115.469 -0.0839026 121.713 0.0844806C132.969 0.392381 141.847 9.56205 141.981 20.8293C142.015 23.5523 141.981 26.2753 141.981 28.9983L141.986 29.0079Z" fill="#30AE9F"/>
<path d="M0.0392184 28.8399C0.0392184 25.9581 -0.0329972 23.0763 0.0536616 20.1994C0.381039 9.21598 9.56205 0.195454 20.5581 0.0751806C26.682 0.00782725 32.8107 0.0751806 38.9394 0.0415039C39.7819 0.0415039 40.0852 0.282051 40.0563 1.12397C40.0082 2.48066 40.0563 3.84697 40.0467 5.20365C40.037 6.38715 39.9552 6.46893 38.7179 6.46893C32.7914 6.48818 26.8649 6.51223 20.9384 6.50742C16.6873 6.50742 13.1439 8.12871 10.2842 11.1981C7.69408 13.974 6.39419 17.3128 6.38456 21.1183C6.36531 26.9203 6.38456 32.7223 6.37975 38.5243C6.37975 40.0975 6.37494 40.0975 4.76212 40.1023C3.67889 40.1023 2.60047 40.1023 1.51723 40.1023C0.0344042 40.1023 0.0247753 40.1023 0.0247753 38.558C0.0247753 35.3154 0.0247753 32.0728 0.0247753 28.835C0.0344041 28.835 0.0440328 28.835 0.0536616 28.835L0.0392184 28.8399Z" fill="#30AE9F"/>
<path d="M29.1613 135.532C32.3243 135.532 35.4874 135.532 38.6504 135.532C39.9744 135.532 40.037 135.595 40.0418 136.855C40.0418 138.255 40.0225 139.655 40.0418 141.055C40.0514 141.714 39.8107 141.969 39.1222 141.969C32.7576 141.94 26.3834 142.128 20.0236 141.888C10.8763 141.541 3.28404 135.422 0.775747 126.613C0.289495 124.905 0.0776628 123.067 0.0535909 121.287C-0.0330678 115.244 0.0102616 109.202 0.0150759 103.159C0.0150759 101.995 0.106549 101.913 1.2283 101.899C2.50892 101.884 3.78955 101.88 5.07017 101.889C6.30265 101.899 6.36042 101.952 6.36524 103.183C6.37005 109.067 6.36524 114.946 6.36524 120.83C6.36524 123.789 7.14998 126.536 8.8302 128.97C11.7236 133.17 15.7292 135.426 20.8709 135.513C23.6344 135.561 26.3979 135.523 29.1613 135.523C29.1613 135.523 29.1613 135.523 29.1613 135.527V135.532Z" fill="#30AE9F"/>
<path d="M141.986 113.089C141.986 115.812 142.02 118.53 141.981 121.253C141.851 130.346 135.997 138.298 127.312 140.949C125.309 141.56 123.148 141.868 121.053 141.916C115.088 142.041 109.118 141.945 103.153 141.979C102.272 141.983 101.921 141.743 101.959 140.834C102.017 139.477 101.959 138.111 101.974 136.754C101.984 135.638 102.08 135.541 103.23 135.541C108.955 135.537 114.684 135.508 120.408 135.551C124.712 135.585 128.419 134.199 131.438 131.115C134.197 128.296 135.598 124.88 135.626 120.95C135.67 115.066 135.641 109.187 135.641 103.303C135.641 101.889 135.641 101.894 137.013 101.899C138.217 101.903 139.415 101.894 140.619 101.903C141.938 101.913 141.977 101.956 141.977 103.246C141.977 106.527 141.977 109.808 141.977 113.089H141.986Z" fill="#30AE9F"/>
<path d="M81.3828 25.0727C80.0637 25.092 78.7397 25.1064 77.4206 25.1401C76.3181 25.1689 76.1689 25.3085 76.164 26.4054C76.1496 28.9696 76.164 31.529 76.1592 34.0933C76.1592 35.3393 76.14 35.3393 74.8593 35.3393C72.3751 35.3393 69.8909 35.3441 67.4067 35.3489C67.0167 35.3489 66.6268 35.3489 66.0635 35.3489C66.0635 33.7565 66.0346 32.2891 66.0972 30.8266C66.1068 30.6294 66.5738 30.3167 66.8482 30.2926C67.763 30.2204 68.6873 30.2637 69.6117 30.2541C71.1571 30.2445 71.1763 30.2253 71.1812 28.7339C71.1812 26.3332 71.1812 23.9277 71.1812 21.5271C71.1812 20.103 71.186 20.0982 72.5629 20.0982C75.0856 20.0982 77.6132 20.1271 80.1359 20.079C81.0362 20.0597 81.3395 20.3724 81.3058 21.2576C81.2625 22.5374 81.3299 23.8171 81.3491 25.0968L81.3828 25.0631V25.0727Z" fill="#30AE9F"/>
<path d="M65.9768 35.4258C65.9768 36.8835 66.0105 38.1151 65.9624 39.3467C65.9287 40.1838 66.2657 40.5061 67.0841 40.4821C68.0807 40.4532 69.0821 40.4965 70.0835 40.4917C70.7719 40.4917 71.1186 40.79 71.1089 41.502C71.0897 42.5412 71.0849 43.5803 71.0897 44.6195C71.0945 45.293 70.7623 45.5384 70.122 45.524C69.1206 45.4999 68.1192 45.5528 67.1226 45.4999C66.2224 45.4566 65.9142 45.8319 65.9624 46.7075C66.0153 47.7033 65.9528 48.704 65.9816 49.7047C66.0009 50.383 65.7024 50.6332 65.0525 50.6188C64.0511 50.5947 63.0497 50.5755 62.0531 50.6188C61.225 50.6572 60.9314 50.3397 60.9458 49.5026C60.9891 46.9865 60.9651 44.4656 60.9602 41.9494C60.9602 40.5302 60.8688 40.434 59.4967 40.4003C58.5771 40.3762 57.6576 40.3811 56.738 40.4003C56.1362 40.4147 55.857 40.1742 55.8715 39.5536C55.8907 38.4374 55.8329 37.3117 55.91 36.2003C55.9292 35.9309 56.3433 35.4691 56.5792 35.4643C59.6459 35.4162 62.7175 35.4306 65.9816 35.4306L65.9768 35.4258Z" fill="#30AE9F"/>
<path d="M58.2786 60.8131C56.1603 60.8131 54.042 60.789 51.9237 60.8227C51.0523 60.8371 50.6816 60.5292 50.7345 59.6344C50.7875 58.7203 50.7827 57.7966 50.7345 56.8777C50.6864 55.9684 51.0956 55.675 51.9526 55.7183C52.8721 55.7664 53.7916 55.6942 54.7112 55.7375C55.6067 55.7808 55.9196 55.4007 55.8763 54.53C55.8233 53.5341 55.8811 52.5334 55.8666 51.5327C55.857 50.9217 56.1266 50.6619 56.7284 50.6668C57.8068 50.6764 58.8901 50.686 59.9685 50.6571C60.6425 50.6379 60.9025 50.9314 60.888 51.5857C60.864 52.5815 60.9169 53.5822 60.888 54.5829C60.864 55.3959 61.1817 55.7567 62.0146 55.7279C63.0112 55.6942 64.0126 55.7519 65.0139 55.7183C65.7361 55.6942 66.025 55.9732 65.9961 56.6997C65.9576 57.6956 65.9528 58.6962 65.9961 59.6969C66.0298 60.5148 65.7265 60.8371 64.884 60.8227C62.6838 60.7842 60.4884 60.8082 58.2883 60.8082L58.2786 60.8131Z" fill="#30AE9F"/>
<path d="M81.2962 35.4308C81.2962 36.8211 81.3299 38.0527 81.2865 39.2795C81.2528 40.1599 81.585 40.5208 82.4757 40.4823C83.4337 40.4438 84.3966 40.4967 85.3595 40.4823C86.0431 40.4726 86.4138 40.718 86.3946 41.4589C86.3705 42.4981 86.3801 43.5372 86.3898 44.5812C86.3898 45.2259 86.1154 45.5241 85.4462 45.5193C82.6827 45.5049 79.9193 45.5001 77.1558 45.5193C76.4673 45.5193 76.2507 45.1826 76.2507 44.5523C76.2555 41.7908 76.2314 39.0294 76.2748 36.2727C76.2748 35.9888 76.6599 35.4837 76.8814 35.4741C78.3064 35.4019 79.7315 35.4356 81.2962 35.4356V35.4308Z" fill="#30AE9F"/>
<path d="M81.3491 25.1064C82.6249 25.1353 83.9007 25.2027 85.1717 25.1786C86.0143 25.1642 86.4187 25.4047 86.4042 26.3284C86.3609 28.9215 86.3946 31.5146 86.3801 34.1125C86.3753 35.2287 86.255 35.3345 85.1332 35.3441C84.2137 35.3538 83.2941 35.3056 82.3794 35.3489C81.585 35.3874 81.3443 35.0507 81.3539 34.2905C81.3924 31.2163 81.378 28.1421 81.3828 25.0728L81.3491 25.1064V25.1064Z" fill="#30AE9F"/>
<path d="M60.8784 25.0724C60.8784 26.4339 60.8591 27.7906 60.888 29.1521C60.9025 29.9123 60.604 30.2442 59.8241 30.2105C58.8275 30.1672 57.8213 30.1817 56.8247 30.2105C56.1796 30.225 55.8666 29.9989 55.8715 29.3157C55.8859 26.5542 55.8859 23.7975 55.8715 21.0361C55.8715 20.377 56.1362 20.0931 56.8006 20.1075C57.8405 20.1316 58.8853 20.146 59.9203 20.1075C60.6858 20.0787 60.8928 20.4443 60.8784 21.1227C60.8543 22.4409 60.8736 23.7639 60.8736 25.0821C60.8736 25.0821 60.8832 25.0821 60.888 25.0821L60.8784 25.0724Z" fill="#30AE9F"/>
<path d="M91.4545 81.2021C91.4545 82.7946 91.493 84.2234 91.416 85.6475C91.4064 85.8736 90.9105 86.2392 90.6216 86.2585C89.5047 86.3258 88.3829 86.2585 87.266 86.2825C86.6786 86.297 86.4813 86.0179 86.4813 85.4887C86.4813 84.3293 86.4813 83.1698 86.4813 82.0104C86.4813 81.5678 86.592 81.207 87.1312 81.207C88.5226 81.207 89.9091 81.207 91.4545 81.207V81.2021Z" fill="#30AE9F"/>
<path d="M81.3732 55.7378C82.8945 55.7378 84.2859 55.6993 85.6676 55.7715C85.918 55.7859 86.332 56.2526 86.3513 56.5364C86.4283 57.7295 86.4235 58.9323 86.3609 60.1302C86.3464 60.3659 85.9565 60.7652 85.7254 60.7797C84.5314 60.847 83.323 60.8518 82.1291 60.7797C81.8643 60.7652 81.4262 60.3419 81.4117 60.0869C81.3395 58.7013 81.378 57.311 81.378 55.7426L81.3732 55.7378Z" fill="#30AE9F"/>
<path d="M117.043 65.855C117.043 64.2914 117.019 62.9058 117.067 61.5251C117.077 61.3134 117.418 60.9382 117.621 60.9285C118.892 60.8708 120.172 60.8564 121.443 60.9334C121.679 60.9478 122.064 61.4193 122.084 61.7031C122.156 62.8144 122.108 63.9306 122.117 65.0467C122.117 65.6048 121.828 65.8453 121.308 65.8501C119.96 65.855 118.608 65.8501 117.043 65.8501V65.855Z" fill="#30AE9F"/>
<path d="M43.0074 60.8133C40.2151 60.7604 40.5425 61.1645 40.5473 58.2876C40.5473 55.4443 40.1333 55.7474 43.0941 55.7378C45.7757 55.7282 45.5735 55.3337 45.5831 58.2443C45.5928 61.1068 45.8335 60.7845 43.0074 60.8133V60.8133Z" fill="#30AE9F"/>
<path d="M32.8106 60.8133C30.1242 60.7796 30.3649 61.1982 30.3745 58.4078C30.3793 55.7281 30.3793 55.7185 33.0176 55.733C35.4681 55.7474 35.3863 55.3577 35.3767 58.1384C35.3767 58.658 35.3622 59.1776 35.3863 59.6924C35.4248 60.5006 35.083 60.8807 34.2501 60.8181C33.7735 60.7796 33.292 60.8133 32.8154 60.8133H32.8106Z" fill="#30AE9F"/>
<path d="M81.3636 109.149C81.4117 106.435 80.911 106.7 83.8863 106.676C86.5583 106.657 86.3994 106.305 86.385 109.182C86.3705 112.16 86.6786 111.742 83.8478 111.742C81.0073 111.742 81.4021 112.141 81.3684 109.264C81.3684 109.226 81.3684 109.182 81.3684 109.144L81.3636 109.149Z" fill="#30AE9F"/>
<path d="M91.623 81.1106V76.2563H96.5963C96.5963 77.7044 96.6155 79.1622 96.5722 80.6151C96.5674 80.7835 96.2063 81.0817 96.0041 81.0865C94.5742 81.1298 93.1443 81.1106 91.6278 81.1106H91.623Z" fill="#30AE9F"/>
<path d="M81.3684 88.7406C81.3973 85.9935 80.9832 86.3736 83.7852 86.3544C86.3898 86.3351 86.3946 86.3495 86.3801 88.9234C86.3657 91.6753 86.6642 91.3289 83.9489 91.3433C81.3684 91.3577 81.3684 91.3529 81.3636 88.7454L81.3684 88.7406Z" fill="#30AE9F"/>
<path d="M83.9344 76.1504C86.8857 76.1793 86.3465 75.8762 86.3753 78.6473C86.4042 81.1297 86.3801 81.1297 83.9344 81.1297C82.2205 81.1297 81.3636 80.3022 81.3636 78.6473C81.3636 76.9923 82.2205 76.1616 83.9344 76.1552V76.1504Z" fill="#30AE9F"/>
<path d="M81.3636 98.9833C81.4021 96.1112 81.0025 96.5105 83.8285 96.5105C86.6642 96.5105 86.3801 96.0775 86.385 99.0362C86.3898 101.745 86.7172 101.543 83.8863 101.538C80.9014 101.538 81.4213 101.827 81.3636 98.9833Z" fill="#30AE9F"/>
<path d="M81.2914 55.6414C79.7267 55.6414 78.2968 55.6703 76.8766 55.6078C76.6599 55.5981 76.2989 55.17 76.2844 54.9198C76.2218 53.7652 76.2507 52.6057 76.2555 51.4463C76.2555 50.8834 76.5973 50.6813 77.1125 50.6813C78.2342 50.6813 79.356 50.638 80.4681 50.7102C80.757 50.7294 81.2432 51.0999 81.2577 51.3308C81.3299 52.7164 81.2962 54.1019 81.2962 55.6366L81.2914 55.6414Z" fill="#30AE9F"/>
<path d="M66.1068 55.6557V50.7437C67.6041 50.7437 69.1014 50.7197 70.5938 50.7774C70.7671 50.7822 71.056 51.2248 71.0656 51.475C71.1138 52.6344 71.1282 53.7987 71.0512 54.9533C71.0319 55.2035 70.5842 55.6172 70.3194 55.6317C68.9666 55.699 67.6089 55.6653 66.1068 55.6653V55.6557Z" fill="#30AE9F"/>
<path d="M71.2004 55.7425C72.7458 55.7425 74.1372 55.7136 75.5237 55.7762C75.7452 55.7858 76.1111 56.2043 76.1255 56.4497C76.1881 57.6476 76.1544 58.8456 76.1448 60.0435C76.1448 60.6015 75.8078 60.8084 75.2878 60.8084C74.2094 60.8084 73.1262 60.8517 72.0478 60.7796C71.7541 60.7603 71.2486 60.3947 71.2389 60.1686C71.1619 58.7445 71.2004 57.3205 71.2004 55.7473V55.7425Z" fill="#30AE9F"/>
<path d="M106.615 40.3858C105.334 40.3858 104.054 40.3665 102.773 40.3954C102.061 40.4098 101.752 40.1211 101.757 39.4043C101.772 36.6861 101.762 33.9631 101.757 31.2449C101.757 30.5474 102.07 30.2443 102.788 30.2491C105.469 30.2683 108.151 30.2731 110.832 30.2491C111.598 30.2443 111.911 30.5425 111.901 31.3171C111.877 33.9968 111.872 36.6765 111.901 39.3562C111.911 40.1644 111.545 40.4098 110.813 40.4002C109.412 40.3858 108.011 40.3954 106.61 40.3954C106.61 40.3954 106.61 40.3906 106.61 40.3858H106.615Z" fill="#30AE9F"/>
<path d="M106.846 101.644C108.165 101.644 109.489 101.663 110.808 101.634C111.53 101.62 111.916 101.798 111.906 102.635C111.867 105.314 111.882 107.994 111.896 110.674C111.901 111.424 111.632 111.766 110.842 111.756C108.16 111.732 105.479 111.727 102.797 111.756C101.988 111.766 101.748 111.371 101.752 110.65C101.762 107.97 101.767 105.29 101.752 102.611C101.752 101.903 102.032 101.605 102.759 101.62C104.121 101.653 105.479 101.629 106.841 101.629V101.639L106.846 101.644Z" fill="#30AE9F"/>
<path d="M40.4703 35.3246C40.4703 36.6812 40.4462 38.0379 40.4799 39.3946C40.4992 40.1211 40.1958 40.3905 39.4929 40.3905C36.7776 40.3761 34.0575 40.3809 31.3422 40.3953C30.6297 40.3953 30.3553 40.1066 30.3601 39.3898C30.3841 36.6764 30.3793 33.9583 30.3601 31.2449C30.3601 30.5377 30.6249 30.2394 31.347 30.2442C34.0623 30.2683 36.7825 30.2683 39.4978 30.2442C40.2295 30.2394 40.4895 30.5425 40.4751 31.2497C40.4462 32.6064 40.4655 33.9631 40.4703 35.3197V35.3246Z" fill="#30AE9F"/>
<path d="M55.6789 132.005C54.846 132.005 54.0179 131.799 53.2139 131.385C50.8789 130.197 48.5199 128.787 46.1994 127.199C42.0349 124.356 38.2027 121.036 34.7989 117.327C31.2026 113.406 28.0733 109.043 25.5072 104.367C23.8944 101.427 22.6186 98.6415 21.6027 95.8512C20.8758 93.8498 20.2884 92.0409 19.8166 90.3186C19.2581 88.2932 18.8008 86.3111 18.4541 84.4204C18.069 82.3132 17.8234 80.1723 17.6598 78.5414C17.4913 76.9153 18.0834 75.4046 19.3207 74.2837C20.9432 72.8212 22.8063 71.5799 25.0209 70.4927C26.7012 69.6652 28.3188 69.0686 29.9557 68.6693C30.2445 68.5971 30.5141 68.5779 30.75 68.5586C30.8319 68.5538 30.9089 68.5442 30.9908 68.5394L31.0726 68.5298H31.1545C33.4846 68.5827 35.3815 69.9971 36.2192 72.316C36.7199 73.6919 37.235 75.0582 37.7501 76.4294C38.0342 77.1847 38.3182 77.9352 38.5975 78.6905L39.0789 79.975C39.5507 81.2307 40.037 82.5248 40.4847 83.8238C41.0721 85.5221 40.7928 87.1915 39.6855 88.654C38.7419 89.9 37.7501 91.1364 36.7873 92.3296L36.6284 92.5268C38.2268 96.2505 40.2584 99.7817 42.6753 103.029C44.1196 104.973 45.7372 106.854 47.4896 108.615L47.7448 108.538C49.1458 108.119 50.5949 107.681 52.0344 107.282C52.5832 107.128 53.1273 107.051 53.652 107.051C54.9808 107.051 56.1796 107.532 57.2243 108.48C58.8708 109.976 60.5077 111.482 62.1494 112.983C63.353 114.089 64.5614 115.191 65.765 116.293L65.8757 116.394C66.4246 116.894 67.0456 117.457 67.45 118.289C68.4225 120.281 68.254 122.244 66.959 123.966C64.6144 127.079 61.6343 129.581 58.1101 131.399C57.335 131.799 56.5262 132.005 55.703 132.005H55.6789ZM31.1015 73.3022C31.01 73.3022 30.9089 73.3167 30.803 73.3504C27.8373 74.1971 25.1172 75.6356 22.71 77.6177C22.3827 77.8871 22.373 78.0795 22.3971 78.2672C22.4934 79.1716 22.6041 80.0713 22.7197 80.9709C22.97 82.9626 23.3744 85.0891 23.957 87.4609C24.5395 89.8327 25.2809 92.2093 26.1619 94.5282C27.4666 97.9487 29.0843 101.273 30.9811 104.405C32.7865 107.388 34.8471 110.217 37.1098 112.819C39.2474 115.278 41.6016 117.582 44.1051 119.675C47.5185 122.528 51.3122 125.039 55.3708 127.151C55.4526 127.195 55.5681 127.243 55.6693 127.243C55.7126 127.243 55.7511 127.233 55.7944 127.219C56.0159 127.132 56.247 127.007 56.507 126.858C59.073 125.414 61.2924 123.5 63.1075 121.166C63.2471 120.988 63.2712 120.883 63.2663 120.863V120.81V120.757C63.2663 120.56 63.223 120.416 62.963 120.18L59.93 117.404C57.9561 115.595 55.9774 113.786 53.9987 111.987C53.7965 111.804 53.6761 111.804 53.6328 111.804C53.5943 111.804 53.5557 111.809 53.5124 111.824C52.7469 112.035 51.9814 112.257 51.2208 112.478C50.6912 112.632 50.1616 112.791 49.632 112.944C48.9436 113.147 48.2551 113.349 47.5667 113.551C47.3163 113.623 47.066 113.661 46.8252 113.661C46.3775 113.661 45.7035 113.531 45.0632 112.916C42.3671 110.327 39.9214 107.474 37.8031 104.439C35.3718 100.951 33.3209 97.1357 31.7129 93.0945C31.3663 92.2237 31.5011 91.3337 32.0981 90.5832C32.5795 89.977 33.0609 89.366 33.5424 88.7598C34.2838 87.8265 35.0204 86.8884 35.7714 85.9599C36.0073 85.6664 36.0362 85.4499 35.8966 85.0891C35.7089 84.6032 35.5259 84.1173 35.343 83.6265L31.6792 73.8074C31.4915 73.3071 31.2219 73.3071 31.1063 73.3071L31.1015 73.3022Z" fill="#30AE9F"/>
<path d="M67.5463 97.6936C66.439 97.684 65.5146 96.9335 65.2499 95.8269C64.2148 91.5404 61.7691 88.1342 57.985 85.6951C56.5599 84.7762 54.9327 84.093 53.1561 83.6649C51.9237 83.3666 51.1678 82.4477 51.1967 81.2642C51.2256 79.9845 52.2559 78.9453 53.5028 78.9453C53.6857 78.9453 53.8687 78.9694 54.0516 79.0127C55.0097 79.2532 56.0351 79.5274 57.0365 79.9075C59.5207 80.8553 61.7835 82.2793 63.767 84.1363C66.0298 86.2531 67.7389 88.7308 68.8558 91.5067C69.2795 92.5651 69.5876 93.6572 69.8861 94.7781C70.0739 95.4854 69.9342 96.2118 69.5009 96.7747C69.0484 97.3616 68.3503 97.6984 67.58 97.6984H67.5559L67.5463 97.6936Z" fill="#30AE9F"/>
<path d="M57.1665 100.094C56.0496 100.094 55.1734 99.4063 54.8749 98.2998C54.6775 97.5637 54.4368 96.996 54.1142 96.5005C53.291 95.2448 52.2029 94.451 50.7875 94.0806C49.5309 93.7486 48.7847 92.849 48.7943 91.6751C48.804 90.4098 49.8824 89.3418 51.1437 89.3418C51.3219 89.3418 51.5 89.361 51.6733 89.4043C55.3082 90.2944 57.8261 92.5315 59.1549 96.0435C59.2945 96.4187 59.3908 96.794 59.4774 97.1307C59.6604 97.8524 59.5111 98.5933 59.0634 99.1754C58.6157 99.7575 57.9272 100.094 57.181 100.094H57.1665V100.094Z" fill="#30AE9F"/>
</svg>
